<svg width="360" height="96" viewBox="0 0 360 96" fill="none" xmlns="http://www.w3.org/2000/svg">
  <defs><mask id="eye"><rect x="24" y="24" width="48" height="48" fill="white"/><ellipse cx="48" cy="48.5" rx="4.6" ry="4.6" fill="black"/></mask></defs>
  <path d="M43.5 33A12 12 0 0 0 33 51.6l-1.6 6a1.35 1.35 0 0 0 1.65 1.65l6-1.8A12 12 0 1 0 43.5 33Z" fill="#101014" fill-opacity="0.55" mask="url(#eye)"/>
  <path d="M52.5 36A12 12 0 0 1 63 54.6l1.65 6a1.35 1.35 0 0 1-1.65 1.65l-6-1.8A12 12 0 1 1 52.5 36Z" fill="#101014" mask="url(#eye)"/>
  <text x="92" y="58" font-family="Geist, Inter, sans-serif" font-size="34" font-weight="600" fill="#101014">readroom</text>
</svg>
